# xmcd CD database file
#
# Track frame offsets:
#	150
#	14315
#	27499
#	41111
#	53798
#	66756
#	79298
#	91307
#	103586
#	117795
#	130078
#	143531
#	158180
#	171441
#	184787
#	198001
#	211406
#	225053
#	238280
#	251715
#	264960
#	278033
#	290479
#
# Disc length: 4034 seconds
#
# Revision: 4
# Processed by: cddbd v1.4PL0 Copyright (c) Steve Scherf et al.
# Submitted via: CDex 1.40Release
#
DISCID=400fc017
DTITLE=Jimmie Davis - Noboy's Darlin' But Mine - Disc 4
DYEAR=1900
DGENRE=
TTITLE0=It's Been Years (Since I've Seen My Mother)
TTITLE1=Beautiful Mary
TTITLE2=My Brown-Eyed Texas Rose
TTITLE3=Moonlight and Skies
TTITLE4=Jelly Roll Blues
TTITLE5=Graveyard Blues
TTITLE6=Are You Tired of Me, Darling?
TTITLE7=Red River Blues
TTITLE8=Answer to 'Nobody's Darling But Mine'
TTITLE9=In My Cabin Tonight
TTITLE10=When a Boy from the Mountains (Weds a Girl from the Valley)
TTITLE11=Come On Over to My House (Ain't Nobody Here But Me)
TTITLE12=Don't Say Goodbye If You Love Me
TTITLE13=I Wish I Had Never Seen the Sunshine
TTITLE14=High Geared Mama
TTITLE15=Bed Bug Blues
TTITLE16=I Ain't Gonna Let Ol' Satan Turn Me 'Round
TTITLE17='Twill Be Sweet When We Meet
TTITLE18=My Blue Bonnet Girl
TTITLE19=Ridin' Down the Arizona Trail
TTITLE20=Mama's Getting Hot and Papa's Getting Cold
TTITLE21=When It's Peach Pickin' Time in Georgia
TTITLE22=Come On Over to My House (Ain't Nobody Here But Me)
EXTD=
EXTT0=
EXTT1=
EXTT2=
EXTT3=
EXTT4=
EXTT5=
EXTT6=
EXTT7=
EXTT8=
EXTT9=
EXTT10=
EXTT11=
EXTT12=
EXTT13=
EXTT14=
EXTT15=
EXTT16=
EXTT17=
EXTT18=
EXTT19=
EXTT20=
EXTT21=
EXTT22=
PLAYORDER=
